<?xml version="1.0" ?><svg viewBox="0 0 64 64" xmlns="http://www.w3.org/2000/svg"><title/><g id="Icons"><path d="M11,30H9a3,3,0,0,1-3-3V23a3,3,0,0,1,3-3h2a1,1,0,0,1,1,1v8A1,1,0,0,1,11,30ZM9,22a1,1,0,0,0-1,1v4a1,1,0,0,0,1,1h1V22Z" style="fill:#4889a0"/><path d="M55,30H53a1,1,0,0,1-1-1V21a1,1,0,0,1,1-1h2a3,3,0,0,1,3,3v4A3,3,0,0,1,55,30Zm-1-2h1a1,1,0,0,0,1-1V23a1,1,0,0,0-1-1H54Z" style="fill:#4889a0"/><polygon points="51.05 46.66 49.1 46.42 50 45 51.05 46.66" style="fill:#1d658d"/><path d="M38.02,51.5a29.857,29.857,0,0,1-4.447-2.123L36.5,53.79Z" style="fill:#4889a0"/><path d="M51,19H43.37c3.732,10.157,4.937,22.354,2.242,32.989.035-.062.06-.128.1-.189l3.39-5.38L50,45l1.05,1.66a15.776,15.776,0,0,0,1.7-4.8A16.807,16.807,0,0,0,53,39V21A2.006,2.006,0,0,0,51,19Z" style="fill:#5d99af"/><path d="M43.37,19H28.24c-5.479,2.421-8.965,6.964-7.24,13,2.083,7.553,5.737,12.58,10.375,15.943L32,47l1.573,2.373A29.857,29.857,0,0,0,38.02,51.5L41,47l4.12,6.22a4.569,4.569,0,0,1,.492-1.231C48.307,41.354,47.1,29.157,43.37,19Z" style="fill:#4889a0"/><path d="M21,32c-1.725-6.036,1.761-10.579,7.24-13H13a2.006,2.006,0,0,0-2,2V39a16.807,16.807,0,0,0,.25,2.86,15.776,15.776,0,0,0,1.7,4.8L14,45l.9,1.42,3.39,5.38a4.6,4.6,0,0,1,.59,1.42L23,47l4.5,6.79,3.875-5.847C26.737,44.58,23.083,39.553,21,32Z" style="fill:#2d798e"/><polygon points="14.9 46.42 12.95 46.66 14 45 14.9 46.42" style="fill:#1d658d"/><path d="M21.6,16a1,1,0,0,1-.918-1.4,17.126,17.126,0,0,0,1.151-3.779,4.731,4.731,0,0,0,.035-2.511,3.592,3.592,0,0,0-.663-1.148,7.677,7.677,0,0,1-.453-.636c-.974-1.558-1-3.541-.084-5.892a1,1,0,1,1,1.864.726c-.676,1.732-.7,3.114-.084,4.108.108.172.226.323.344.477a5.518,5.518,0,0,1,.974,1.738,6.687,6.687,0,0,1,.035,3.49A19.116,19.116,0,0,1,22.518,15.4,1,1,0,0,1,21.6,16Z" style="fill:#76838b"/><path d="M31.6,16a1,1,0,0,1-.918-1.4,17.126,17.126,0,0,0,1.151-3.779,4.731,4.731,0,0,0,.035-2.511,3.592,3.592,0,0,0-.663-1.148,7.677,7.677,0,0,1-.453-.636c-.974-1.558-1-3.541-.084-5.892a1,1,0,1,1,1.864.726c-.676,1.732-.7,3.114-.084,4.108.108.172.226.323.344.477a5.518,5.518,0,0,1,.974,1.738,6.687,6.687,0,0,1,.035,3.49A19.116,19.116,0,0,1,32.518,15.4,1,1,0,0,1,31.6,16Z" style="fill:#76838b"/><path d="M41.6,16a1,1,0,0,1-.918-1.4,17.126,17.126,0,0,0,1.151-3.779,4.731,4.731,0,0,0,.035-2.511,3.592,3.592,0,0,0-.663-1.148,7.677,7.677,0,0,1-.453-.636c-.974-1.558-1-3.541-.084-5.892a1,1,0,1,1,1.864.726c-.676,1.732-.7,3.114-.084,4.108.108.172.226.323.344.477a5.518,5.518,0,0,1,.974,1.738,6.687,6.687,0,0,1,.035,3.49A19.116,19.116,0,0,1,42.518,15.4,1,1,0,0,1,41.6,16Z" style="fill:#76838b"/><path d="M23.661,22H15a1,1,0,0,0,0,2h7.007A11.017,11.017,0,0,1,23.661,22Z" style="fill:#4889a0"/><path d="M46,23a1,1,0,0,0-1-1h-.618q.3.99.575,2H45A1,1,0,0,0,46,23Z" style="fill:#a4c9d6"/><path d="M23.661,22a11.017,11.017,0,0,0-1.654,2h22.95q-.271-1.009-.575-2Z" style="fill:#5d99af"/><path d="M49,24a.994.994,0,0,0,.71-.29A1.007,1.007,0,0,0,50,23a.838.838,0,0,0-.08-.38.9.9,0,0,0-.54-.54.916.916,0,0,0-.76,0,.9.9,0,0,0-.54.54A.838.838,0,0,0,48,23a1.007,1.007,0,0,0,.29.71A.994.994,0,0,0,49,24Z" style="fill:#a4c9d6"/><path d="M18.88,53.22l-1.85,4.81a5.2,5.2,0,0,1-6.56-.42l-.01-.01a4.573,4.573,0,0,1-.75-5.8l3.24-5.14L14,45l.9,1.42,3.39,5.38A4.6,4.6,0,0,1,18.88,53.22Z" style="fill:#e77973"/><path d="M14,57a3.114,3.114,0,0,1-2.123-.809l-.041-.04a2.587,2.587,0,0,1-.437-3.283L14,48.744l2.6,4.122a2.961,2.961,0,0,1,.161.3L15.407,56.68A3.235,3.235,0,0,1,14,57Z" style="fill:#febd73"/><path d="M27.5,53.79v7.35a3.189,3.189,0,0,1-.26.26v.01a6.448,6.448,0,0,1-8.48,0V61.4a5.159,5.159,0,0,1-1.73-3.37,4.911,4.911,0,0,1,.82-3.26l1.03-1.55L23,47Z" style="fill:#ff8680"/><path d="M23,61a4.319,4.319,0,0,1-2.737-.935l-.162-.148a3.188,3.188,0,0,1-1.079-2.063,2.951,2.951,0,0,1,.5-1.98L23,50.621l2.5,3.772v5.851A4.376,4.376,0,0,1,23,61Z" style="fill:#fedc96"/><path d="M53.54,57.6l-.01.01a5.2,5.2,0,0,1-6.56.42l-1.85-4.81a4.6,4.6,0,0,1,.59-1.42l3.39-5.38L50,45l1.05,1.66,3.24,5.14A4.573,4.573,0,0,1,53.54,57.6Z" style="fill:#e77973"/><path d="M50,57a3.235,3.235,0,0,1-1.4-.319l-1.352-3.516a3.022,3.022,0,0,1,.168-.309L50,48.744l2.6,4.122a2.587,2.587,0,0,1-.436,3.284l-.056.053A3.11,3.11,0,0,1,50,57Z" style="fill:#febd73"/><path d="M46.97,58.03a5.159,5.159,0,0,1-1.73,3.37v.01a6.448,6.448,0,0,1-8.48,0V61.4a3.189,3.189,0,0,1-.26-.26V53.79L41,47l4.12,6.22,1.03,1.55A4.911,4.911,0,0,1,46.97,58.03Z" style="fill:#ff8680"/><path d="M41,61a4.376,4.376,0,0,1-2.5-.756V54.393L41,50.621l3.484,5.255a2.915,2.915,0,0,1,.5,1.939,3.205,3.205,0,0,1-1.082,2.1l-.186.168A4.326,4.326,0,0,1,41,61Z" style="fill:#fedc96"/><path d="M36.5,61.14a3.189,3.189,0,0,1-.26.26v.01a6.448,6.448,0,0,1-8.48,0V61.4a3.189,3.189,0,0,1-.26-.26,5.023,5.023,0,0,1-.65-6.37l.65-.98L32,47l4.5,6.79.65.98A5.023,5.023,0,0,1,36.5,61.14Z" style="fill:#f78d8d"/><path d="M32,61a4.318,4.318,0,0,1-2.717-.919l-.193-.174c-.031-.027-.126-.131-.126-.131l-.038-.038a3.041,3.041,0,0,1-.4-3.87L32,50.62l3.483,5.255a3.038,3.038,0,0,1-.409,3.863s-.133.142-.164.169l-.222.2A4.328,4.328,0,0,1,32,61Z" style="fill:#ffecd1"/></g></svg>